<svg height="100%" stroke-miterlimit="10" style="fill-rule:nonzero;clip-rule:evenodd;stroke-linecap:round;stroke-linejoin:round;" version="1.1" viewBox="0 0 561.757 593.448" width="100%" xml:space="preserve"
    xmlns="http://www.w3.org/2000/svg">
    <defs/>
    <g>
        <path d="M445.557 501.206L116.82 501.206C104.625 501.192 94.7434 491.31 94.7296 479.116L94.7296 103.435C94.7434 91.2404 104.625 81.3583 116.82 81.3445L445.557 81.3445C457.751 81.3583 467.633 91.2404 467.647 103.435L467.647 479.116C467.633 491.31 457.751 501.193 445.557 501.206Z" fill="#e6e6e6" fill-rule="nonzero" opacity="1" stroke="none"/>
        <path d="M430.196 482.795L132.181 482.795C121.354 482.783 112.579 474.009 112.567 463.181L112.567 119.369C112.579 108.542 121.354 99.7679 132.181 99.7556L430.196 99.7556C441.023 99.7679 449.797 108.542 449.81 119.369L449.81 463.181C449.797 474.009 441.023 482.783 430.196 482.795Z" fill="#ffffff" fill-rule="nonzero" opacity="1" stroke="none"/>
        <path d="M418.34 148.69L268 148.69C266.247 148.692 264.626 147.758 263.748 146.24C262.871 144.722 262.871 142.851 263.748 141.333C264.626 139.815 266.247 138.881 268 138.883L418.34 138.883C420.093 138.881 421.715 139.815 422.592 141.333C423.47 142.851 423.47 144.722 422.592 146.24C421.715 147.758 420.093 148.692 418.34 148.69Z" fill="#e4e4e4" fill-rule="nonzero" opacity="1" stroke="none"/>
        <path d="M418.34 168.064L268 168.064C265.292 168.064 263.097 165.869 263.097 163.161C263.097 160.453 265.292 158.257 268 158.257L418.34 158.257C421.048 158.257 423.243 160.453 423.243 163.161C423.243 165.869 421.048 168.064 418.34 168.064Z" fill="#e4e4e4" fill-rule="nonzero" opacity="1" stroke="none"/>
        <path d="M333.169 187.439L268 187.439C265.292 187.439 263.097 185.243 263.097 182.535C263.097 179.827 265.292 177.632 268 177.632L333.169 177.632C335.877 177.632 338.072 179.827 338.072 182.535C338.072 185.243 335.877 187.439 333.169 187.439Z" fill="#e4e4e4" fill-rule="nonzero" opacity="1" stroke="none"/>
        <path d="M400.211 265.69L162.871 265.69C161.118 265.692 159.496 264.758 158.619 263.24C157.742 261.722 157.742 259.851 158.619 258.333C159.496 256.815 161.118 255.881 162.871 255.883L400.211 255.883C401.964 255.881 403.585 256.815 404.463 258.333C405.34 259.851 405.34 261.722 404.463 263.24C403.585 264.758 401.964 265.692 400.211 265.69Z" fill="#e4e4e4" fill-rule="nonzero" opacity="1" stroke="none"/>
        <path d="M400.211 285.064L162.871 285.064C160.163 285.064 157.968 282.869 157.968 280.161C157.968 277.453 160.163 275.257 162.871 275.257L400.211 275.257C402.919 275.257 405.114 277.453 405.114 280.161C405.114 282.869 402.919 285.064 400.211 285.064Z" fill="#e4e4e4" fill-rule="nonzero" opacity="1" stroke="none"/>
        <path d="M400.211 329.043L162.871 329.043C160.162 329.044 157.966 326.849 157.966 324.14C157.966 321.432 160.162 319.236 162.871 319.237L400.211 319.237C402.919 319.236 405.116 321.432 405.116 324.14C405.116 326.849 402.919 329.044 400.211 329.043Z" fill="#e4e4e4" fill-rule="nonzero" opacity="1" stroke="none"/>
        <path d="M400.211 348.418L162.871 348.418C160.163 348.418 157.968 346.223 157.968 343.515C157.968 340.807 160.163 338.611 162.871 338.611L400.211 338.611C402.919 338.611 405.114 340.807 405.114 343.515C405.114 346.223 402.919 348.418 400.211 348.418Z" fill="#e4e4e4" fill-rule="nonzero" opacity="1" stroke="none"/>
        <path d="M400.211 392.397L162.871 392.397C160.162 392.398 157.966 390.203 157.966 387.494C157.966 384.786 160.162 382.59 162.871 382.591L400.211 382.591C402.919 382.59 405.116 384.786 405.116 387.494C405.116 390.203 402.919 392.398 400.211 392.397Z" fill="#e4e4e4" fill-rule="nonzero" opacity="1" stroke="none"/>
        <path d="M400.211 411.772L162.871 411.772C160.163 411.772 157.968 409.577 157.968 406.869C157.968 404.161 160.163 401.965 162.871 401.965L400.211 401.965C402.919 401.965 405.114 404.161 405.114 406.869C405.114 409.577 402.919 411.772 400.211 411.772Z" fill="#e4e4e4" fill-rule="nonzero" opacity="1" stroke="none"/>
        <path d="M400.169 465.439L335 465.439C332.292 465.439 330.097 463.243 330.097 460.535C330.097 457.827 332.292 455.632 335 455.632L400.169 455.632C402.877 455.632 405.072 457.827 405.072 460.535C405.072 463.243 402.877 465.439 400.169 465.439Z" fill="#7377c9" fill-rule="nonzero" opacity="1" stroke="none"/>
        <path d="M226.384 163.735C226.397 174.265 222.832 184.487 216.274 192.725C214.152 195.406 211.737 197.842 209.074 199.985C201.804 205.882 192.923 209.444 183.594 210.205C182.324 210.315 181.043 210.365 179.753 210.365C177.197 210.366 174.645 210.155 172.123 209.735C171.234 209.595 170.364 209.425 169.493 209.225C167.979 208.888 166.484 208.471 165.013 207.975C160.246 206.388 155.767 204.038 151.753 201.015C150.683 200.215 149.654 199.365 148.654 198.465C147.431 197.38 146.272 196.225 145.183 195.005C144.893 194.685 144.603 194.355 144.323 194.025C130.912 178.328 129.423 155.678 140.665 138.36C151.907 121.042 173.201 113.182 192.998 119.043C212.796 124.903 226.38 143.088 226.384 163.735Z" fill="#e4e4e4" fill-rule="nonzero" opacity="1" stroke="none"/>
        <path d="M159.021 160.54C159.021 149.986 167.577 141.431 178.13 141.431C188.684 141.431 197.239 149.986 197.239 160.54C197.239 171.093 188.684 179.649 178.13 179.649C167.577 179.649 159.021 171.093 159.021 160.54Z" fill="#ffb8b8" fill-rule="nonzero" opacity="1" stroke="none"/>
        <path d="M199.404 151.225C199.49 149.518 199.008 147.829 198.033 146.425L197.344 145.445C194.853 140.645 190.743 136.325 187.734 133.165C185.473 130.795 183.214 129.655 181.043 129.765C179.464 129.878 177.994 130.611 176.953 131.805C171.113 131.448 165.617 134.585 162.953 139.795C153.804 144.625 156.533 158.885 156.563 159.035L158.774 162.745L159.024 162.275C159.024 162.265 159.054 162.225 159.094 162.145C159.524 161.375 161.864 157.095 163.444 154.385C164.02 153.461 164.787 152.67 165.694 152.065C167.174 151.054 168.875 150.413 170.654 150.195L175.514 149.565L173.674 152.325L186.913 152.325L192.003 151.725C192.513 153.815 196.554 161.925 197.043 162.905L197.083 162.985L197.353 163.535L198.863 159.385C199.745 156.757 199.931 153.946 199.404 151.225Z" fill="#2f2e41" fill-rule="nonzero" opacity="1" stroke="none"/>
        <path d="M151.893 201.115C152.713 200.035 156.963 194.995 166.743 192.325L171.923 186.555L192.693 183.245L203.263 189.085L216.273 192.725C214.152 195.406 211.737 197.842 209.073 199.985C201.804 205.882 192.923 209.444 183.593 210.205C182.323 210.315 181.043 210.365 179.753 210.365C177.197 210.366 174.645 210.155 172.123 209.735C171.233 209.595 170.363 209.425 169.493 209.225C167.979 208.888 166.484 208.471 165.013 207.975C160.3 206.409 155.869 204.092 151.893 201.115C151.843 201.085 151.803 201.045 151.753 201.015L151.893 201.115Z" fill="#7377c9" fill-rule="nonzero" opacity="1" stroke="none"/>
    </g>
</svg>
